<?xml version="1.0" standalone="no"?>
<!DOCTYPE svg PUBLIC "-//W3C//DTD SVG 20010904//EN"
 "http://www.w3.org/TR/2001/REC-SVG-20010904/DTD/svg10.dtd">
<svg version="1.0" xmlns="http://www.w3.org/2000/svg"
 width="366.000000pt" height="366.000000pt" viewBox="0 0 366.000000 366.000000"
 preserveAspectRatio="xMidYMid meet">
<metadata>
Created by potrace 1.11, written by Peter Selinger 2001-2013
</metadata>
<g transform="translate(0.000000,366.000000) scale(0.100000,-0.100000)"
fill="#000000" stroke="none">
<path d="M3093 3308 c-142 -178 -265 -331 -273 -341 -8 -11 -21 -25 -28 -33
-56 -59 -47 -167 20 -241 l20 -21 -57 -76 c-32 -42 -60 -76 -64 -76 -4 0 -27
21 -51 46 -205 210 -498 333 -801 335 -298 3 -556 -99 -790 -311 l-76 -69 -32
44 c-17 24 -31 48 -31 53 0 5 19 22 42 37 68 44 98 76 98 105 0 37 -482 724
-539 767 -88 68 -211 75 -321 18 -31 -16 -31 -16 -14 -43 9 -15 144 -208 299
-428 155 -221 317 -454 360 -518 l78 -115 -35 -54 c-57 -86 -147 -281 -135
-293 1 -2 39 8 82 22 189 60 339 65 520 15 178 -49 301 -65 495 -65 158 0 246
9 385 39 166 37 224 44 321 40 127 -5 186 -16 312 -57 35 -11 66 -18 68 -15
11 10 -67 191 -122 284 -16 27 -17 36 -6 50 6 10 15 25 19 33 4 8 9 17 12 20
4 3 26 35 49 71 l42 66 48 -12 c57 -15 106 -10 147 13 22 13 90 116 262 397
250 411 271 445 256 430 -5 -5 -65 -80 -133 -165 -268 -336 -404 -506 -418
-520 -7 -8 22 44 65 115 44 72 137 225 207 340 71 116 143 234 162 263 19 28
32 52 30 52 -2 0 -28 -30 -58 -67 -29 -38 -58 -75 -65 -83 -7 -8 -107 -134
-223 -280 -117 -146 -216 -269 -222 -275 -12 -12 -42 -62 327 540 118 192 142
233 128 220 -6 -5 -126 -156 -268 -335 -142 -179 -262 -329 -268 -335 -13 -13
10 30 42 80 14 22 32 52 41 66 48 80 119 198 179 296 38 62 71 118 75 125 3 7
28 48 55 91 28 42 48 77 46 77 -2 0 -120 -145 -262 -322z"/>
<path d="M1144 1993 c-16 -8 -37 -22 -48 -31 -23 -21 -76 -97 -76 -109 0 -5
26 -17 58 -27 140 -43 323 -100 392 -122 41 -13 75 -24 77 -24 8 0 -32 88 -60
133 -96 149 -248 230 -343 180z"/>
<path d="M2463 2000 c-90 -21 -194 -118 -253 -235 -22 -43 -38 -80 -36 -82 3
-3 518 157 525 163 8 8 -19 54 -56 95 -57 63 -102 78 -180 59z"/>
<path d="M435 1969 c-22 -5 -91 -27 -154 -47 l-114 -38 67 -42 c37 -23 73 -42
79 -42 7 0 57 18 111 40 55 22 102 38 104 36 2 -2 -18 -19 -45 -37 -72 -50
-214 -195 -260 -266 -10 -15 -64 -94 -120 -175 -55 -80 -99 -148 -97 -150 4
-4 221 27 259 36 12 3 46 48 84 108 93 148 122 194 243 377 59 90 108 167 108
172 0 28 -182 47 -265 28z"/>
<path d="M702 1713 c-53 -102 -71 -331 -36 -467 61 -238 258 -409 606 -525
l109 -37 -190 -251 c-203 -268 -213 -287 -176 -340 41 -58 126 -87 171 -59 21
15 99 129 330 483 l79 123 105 -7 c138 -9 176 -8 295 1 55 5 113 9 129 10 27
1 40 -16 226 -302 108 -167 203 -308 211 -313 63 -40 189 37 189 116 0 29 -31
75 -189 287 -104 139 -190 257 -191 263 -1 5 35 21 80 36 133 44 304 133 357
185 7 7 23 21 36 31 33 26 100 111 129 163 84 148 96 363 32 568 -9 28 -18 52
-20 52 -2 0 -27 -14 -56 -31 -119 -70 -300 -136 -481 -174 l-109 -23 -71 34
c-82 38 -200 70 -302 81 -188 19 -338 -5 -499 -82 l-80 -38 -115 22 c-187 36
-421 121 -528 191 -30 20 -32 20 -41 3z m653 -523 c209 -104 317 -139 456
-147 175 -10 325 33 620 177 57 27 105 48 107 45 12 -12 -117 -149 -191 -204
-228 -168 -501 -213 -758 -123 -97 34 -216 107 -294 179 -39 37 -135 149 -135
158 0 11 24 1 195 -85z"/>
</g>
</svg>
